<?xml version="1.0" encoding="UTF-8" standalone="no"?><!DOCTYPE svg PUBLIC "-//W3C//DTD SVG 1.1//EN" "http://www.w3.org/Graphics/SVG/1.1/DTD/svg11.dtd"><!-- Generated by graphviz version 2.40.1 (20161225.0304)
 --><!-- Title: %0 Pages: 1 --><svg xmlns="http://www.w3.org/2000/svg" xmlns:xlink="http://www.w3.org/1999/xlink" width="302pt" height="327pt" viewBox="0.00 0.00 301.71 327.20">
<g id="graph0" class="graph" transform="scale(1 1) rotate(0) translate(4 323.2)">
<title>%0</title>
<polygon fill="#ffffff" stroke="transparent" points="-4,4 -4,-323.2 297.7069,-323.2 297.7069,4 -4,4"/>
<!-- N1 -->
<g id="node1" class="node">
<title>N1</title>
<ellipse fill="none" stroke="#000000" cx="139.1759" cy="-301.2" rx="66.7285" ry="18"/>
<text text-anchor="middle" x="139.1759" y="-297" font-family="Times,serif" font-size="14.00" fill="#000000">ベクトル空間</text>
</g>
<!-- N2 -->
<g id="node2" class="node">
<title>N2</title>
<ellipse fill="none" stroke="#000000" cx="81.1759" cy="-195.6" rx="81.3521" ry="18"/>
<text text-anchor="middle" x="81.1759" y="-191.4" font-family="Times,serif" font-size="14.00" fill="#000000">ベクトルバンドル</text>
</g>
<!-- N1&#45;&gt;N2 -->
<g id="edge1" class="edge">
<title>N1-&gt;N2</title>
<path fill="none" stroke="#000000" d="M113.6699,-284.5094C107.0974,-279.0765 100.6378,-272.5315 96.2125,-265.2 88.7018,-252.7569 84.9183,-237.063 83.0226,-223.7288"/>
<polygon fill="#000000" stroke="#000000" points="86.4836,-223.1866 81.872,-213.6481 79.5287,-223.9805 86.4836,-223.1866"/>
<text text-anchor="middle" x="141.1576" y="-252.6" font-family="Times,serif" font-size="14.00" fill="#000000">(底空間)</text>
<text text-anchor="middle" x="141.1576" y="-235.8" font-family="Times,serif" font-size="14.00" fill="#000000">一点から空間へ</text>
</g>
<!-- N3 -->
<g id="node3" class="node">
<title>N3</title>
<ellipse fill="none" stroke="#000000" cx="196.1759" cy="-106.8" rx="27" ry="18"/>
<text text-anchor="middle" x="196.1759" y="-102.6" font-family="Times,serif" font-size="14.00" fill="#000000">加群</text>
</g>
<!-- N1&#45;&gt;N3 -->
<g id="edge3" class="edge">
<title>N1-&gt;N3</title>
<path fill="none" stroke="#000000" d="M167.0375,-284.7242C173.7614,-279.3679 180.1582,-272.8086 184.1759,-265.2 205.9273,-224.0079 204.1998,-168.2169 200.5069,-135.0233"/>
<polygon fill="#000000" stroke="#000000" points="203.9277,-134.173 199.2102,-124.6864 196.9822,-135.0443 203.9277,-134.173"/>
<text text-anchor="middle" x="248.4414" y="-199.8" font-family="Times,serif" font-size="14.00" fill="#000000">(スカラー)</text>
<text text-anchor="middle" x="248.4414" y="-183" font-family="Times,serif" font-size="14.00" fill="#000000">体から可換環へ</text>
</g>
<!-- N2&#45;&gt;N3 -->
<g id="edge2" class="edge">
<title>N2-&gt;N3</title>
<path fill="none" stroke="#000000" d="M79.7338,-177.6028C79.8247,-166.2836 81.9134,-152.1095 90.3451,-142.8 110.4193,-120.6358 127.0066,-134.8361 155.1759,-124.8 158.2515,-123.7042 161.4215,-122.4835 164.5722,-121.2083"/>
<polygon fill="#000000" stroke="#000000" points="166.0013,-124.4042 173.8522,-117.2899 163.2783,-117.9555 166.0013,-124.4042"/>
<text text-anchor="middle" x="138.0913" y="-147" font-family="Times,serif" font-size="14.00" fill="#000000">大域セクション</text>
</g>
<!-- N4 -->
<g id="node4" class="node">
<title>N4</title>
<ellipse fill="none" stroke="#000000" cx="72.1759" cy="-18" rx="33.6479" ry="18"/>
<text text-anchor="middle" x="72.1759" y="-13.8" font-family="Times,serif" font-size="14.00" fill="#000000">加群層</text>
</g>
<!-- N2&#45;&gt;N4 -->
<g id="edge4" class="edge">
<title>N2-&gt;N4</title>
<path fill="none" stroke="#000000" d="M75.9051,-177.453C72.0695,-163.2614 67.2073,-142.9594 65.1817,-124.8 62.2211,-98.2597 64.7891,-67.8586 67.6112,-46.2964"/>
<polygon fill="#000000" stroke="#000000" points="71.1062,-46.5767 69.0379,-36.1857 64.1749,-45.5985 71.1062,-46.5767"/>
<text text-anchor="middle" x="113.673" y="-111" font-family="Times,serif" font-size="14.00" fill="#000000">たくさんの</text>
<text text-anchor="middle" x="113.673" y="-94.2" font-family="Times,serif" font-size="14.00" fill="#000000">局所セクション</text>
</g>
<!-- N3&#45;&gt;N4 -->
<g id="edge5" class="edge">
<title>N3-&gt;N4</title>
<path fill="none" stroke="#000000" d="M177.6118,-93.5057C157.2735,-78.9409 124.4032,-55.4015 100.768,-38.4757"/>
<polygon fill="#000000" stroke="#000000" points="102.6866,-35.5447 92.5185,-32.568 98.6109,-41.2359 102.6866,-35.5447"/>
<text text-anchor="middle" x="214.5295" y="-58.2" font-family="Times,serif" font-size="14.00" fill="#000000">単一から重なった複数へ</text>
</g>
</g>
</svg>